<svg width="103" height="25" viewBox="0 0 103 25" fill="none" xmlns="http://www.w3.org/2000/svg">
<path d="M0.6 18.1L6.08 11.6H0.8V9.4H9.4V11.3L3.92 17.8H9.6V20H0.6V18.1ZM15.0353 20.24C13.7953 20.24 12.862 19.8933 12.2353 19.2C11.6086 18.4933 11.2953 17.4067 11.2953 15.94V9.4H13.9353V15.58C13.9353 16.38 14.0886 16.9867 14.3953 17.4C14.7153 17.8 15.2486 18 15.9953 18C16.3953 18 16.7353 17.9333 17.0153 17.8C17.2953 17.6667 17.5286 17.4933 17.7153 17.28C17.902 17.0533 18.0353 16.7933 18.1153 16.5C18.2086 16.2067 18.2553 15.9 18.2553 15.58V9.4H20.8953V20H18.4553V18.44C18.202 18.92 17.7953 19.34 17.2353 19.7C16.6886 20.06 15.9553 20.24 15.0353 20.24ZM13.9753 8.28C13.5486 8.28 13.1953 8.14 12.9153 7.86C12.6353 7.58 12.4953 7.22667 12.4953 6.8C12.4953 6.37333 12.6353 6.02 12.9153 5.74C13.1953 5.46 13.5486 5.32 13.9753 5.32C14.402 5.32 14.7553 5.46 15.0353 5.74C15.3153 6.02 15.4553 6.37333 15.4553 6.8C15.4553 7.22667 15.3153 7.58 15.0353 7.86C14.7553 8.14 14.402 8.28 13.9753 8.28ZM18.2153 8.28C17.7886 8.28 17.4353 8.14 17.1553 7.86C16.8753 7.58 16.7353 7.22667 16.7353 6.8C16.7353 6.37333 16.8753 6.02 17.1553 5.74C17.4353 5.46 17.7886 5.32 18.2153 5.32C18.642 5.32 18.9953 5.46 19.2753 5.74C19.5553 6.02 19.6953 6.37333 19.6953 6.8C19.6953 7.22667 19.5553 7.58 19.2753 7.86C18.9953 8.14 18.642 8.28 18.2153 8.28ZM25.0898 24.24C24.8898 24.24 24.6898 24.22 24.4898 24.18V21.94C24.6898 21.98 24.8898 22 25.0898 22C25.4898 22 25.7965 21.8467 26.0098 21.54C26.2365 21.2467 26.4898 20.7333 26.7698 20L22.2898 9.4H25.2498L28.1298 16.72L30.7698 9.4H33.4898L29.4098 20C29.1165 20.7467 28.8365 21.3867 28.5698 21.92C28.3165 22.4667 28.0298 22.9067 27.7098 23.24C27.3898 23.5867 27.0232 23.84 26.6098 24C26.1965 24.16 25.6898 24.24 25.0898 24.24Z" fill="black"/>
<path d="M41.5625 12.9009L41.097 15.2349H44.2909L44.0259 16.5409H40.8319L40.1466 20H38.5302L40.2241 11.5496H45.2155L44.9375 12.9009H41.5625ZM52.272 20.1487C51.8625 20.1487 51.494 20.0991 51.1664 20C50.8388 19.8966 50.5586 19.7435 50.3259 19.5409C50.0974 19.3341 49.9207 19.0754 49.7957 18.7651C49.6707 18.4504 49.6082 18.0819 49.6082 17.6595C49.6082 17.2888 49.647 16.9246 49.7246 16.5668C49.8065 16.2047 49.9228 15.8621 50.0737 15.5388C50.2289 15.2112 50.4164 14.9116 50.6362 14.6401C50.8603 14.3642 51.1168 14.1272 51.4056 13.9289C51.6987 13.7263 52.0198 13.569 52.369 13.4569C52.7224 13.3448 53.1039 13.2888 53.5134 13.2888C53.9185 13.2888 54.2849 13.3405 54.6125 13.444C54.9444 13.5431 55.2246 13.6961 55.453 13.903C55.6858 14.1056 55.8647 14.3642 55.9897 14.6789C56.1147 14.9892 56.1772 15.3556 56.1772 15.778C56.1772 16.1487 56.1362 16.5151 56.0543 16.8772C55.9767 17.2349 55.8625 17.5754 55.7116 17.8987C55.5608 18.222 55.3733 18.5216 55.1491 18.7974C54.925 19.0733 54.6685 19.3125 54.3797 19.5151C54.0909 19.7134 53.7698 19.8685 53.4164 19.9806C53.0629 20.0927 52.6815 20.1487 52.272 20.1487ZM54.522 15.9332C54.522 15.5065 54.4164 15.1875 54.2052 14.9763C53.9983 14.7608 53.6987 14.653 53.3065 14.653C53.0737 14.653 52.8625 14.6983 52.6728 14.7888C52.4832 14.875 52.3108 14.9914 52.1556 15.1379C52.0047 15.2845 51.8733 15.4547 51.7612 15.6487C51.6491 15.8427 51.5565 16.0453 51.4832 16.2565C51.4099 16.4677 51.3539 16.681 51.3151 16.8966C51.2806 17.1078 51.2634 17.3082 51.2634 17.4978C51.2634 17.9246 51.369 18.2457 51.5802 18.4612C51.7914 18.6767 52.0931 18.7845 52.4853 18.7845C52.7181 18.7845 52.9293 18.7414 53.119 18.6552C53.3086 18.5647 53.4789 18.4461 53.6297 18.2996C53.7806 18.1487 53.9121 17.9784 54.0241 17.7888C54.1362 17.5948 54.2289 17.3922 54.3022 17.181C54.3754 16.9698 54.4293 16.7565 54.4638 16.5409C54.5026 16.3254 54.522 16.1228 54.522 15.9332ZM63.5246 17.9892C63.4642 18.2996 63.4879 18.5323 63.5957 18.6875C63.7034 18.8384 63.8996 18.9138 64.1841 18.9138C64.4987 18.9138 64.8349 18.8664 65.1927 18.7716C65.5504 18.6767 65.9664 18.5388 66.4405 18.3578V19.5927C66.0052 19.7737 65.5698 19.9116 65.1345 20.0065C64.7034 20.1013 64.2595 20.1487 63.8026 20.1487C63.0181 20.1487 62.475 19.9547 62.1733 19.5668C61.8759 19.1746 61.8091 18.5647 61.9728 17.7371L63.35 10.8642H64.9405L63.5246 17.9892ZM75.9927 17.8017C75.9151 18.2112 75.9172 18.5 75.9991 18.6681C76.081 18.8319 76.2427 18.9138 76.4841 18.9138C76.6866 18.9138 76.9108 18.8707 77.1565 18.7845C77.4022 18.694 77.6823 18.5733 77.997 18.4224V19.6315C77.7168 19.7823 77.4151 19.9052 77.0918 20C76.7728 20.0991 76.4474 20.1487 76.1155 20.1487C75.3784 20.1487 74.8655 19.9591 74.5767 19.5797C74.2879 19.1961 74.2276 18.5862 74.3957 17.75L74.8159 15.6293C74.8978 15.2198 74.8957 14.9332 74.8095 14.7694C74.7233 14.6013 74.5616 14.5172 74.3246 14.5172C74.1263 14.5172 73.9022 14.5625 73.6522 14.653C73.4065 14.7392 73.1284 14.8578 72.8181 15.0086V13.7996C73.0983 13.6444 73.3978 13.5194 73.7168 13.4246C74.0358 13.3297 74.3634 13.2823 74.6996 13.2823C75.4323 13.2823 75.9431 13.4741 76.2319 13.8578C76.5207 14.2414 76.5832 14.8491 76.4194 15.681L75.9927 17.8017ZM77.2922 11.5754C77.2922 11.7306 77.2621 11.875 77.2017 12.0086C77.1414 12.1422 77.0595 12.2586 76.956 12.3578C76.8569 12.4526 76.7405 12.528 76.6069 12.5841C76.4776 12.6358 76.3397 12.6616 76.1931 12.6616C76.0422 12.6616 75.9043 12.6358 75.7793 12.5841C75.6543 12.528 75.5466 12.4569 75.456 12.3707C75.3655 12.2802 75.2944 12.1767 75.2427 12.0603C75.1953 11.9397 75.1716 11.8147 75.1716 11.6853C75.1716 11.5302 75.2017 11.3879 75.2621 11.2586C75.3224 11.125 75.4043 11.0108 75.5078 10.9159C75.6112 10.8168 75.7297 10.7392 75.8634 10.6832C75.997 10.6272 76.1371 10.5991 76.2836 10.5991C76.4388 10.5991 76.5767 10.6272 76.6974 10.6832C76.8224 10.7349 76.928 10.806 77.0142 10.8966C77.1047 10.9871 77.1737 11.0905 77.2211 11.2069C77.2685 11.3233 77.2922 11.4461 77.2922 11.5754ZM86.0297 20.1487C85.6203 20.1487 85.2517 20.0991 84.9241 20C84.5966 19.8966 84.3164 19.7435 84.0836 19.5409C83.8552 19.3341 83.6784 19.0754 83.5534 18.7651C83.4284 18.4504 83.3659 18.0819 83.3659 17.6595C83.3659 17.2888 83.4047 16.9246 83.4823 16.5668C83.5642 16.2047 83.6806 15.8621 83.8315 15.5388C83.9866 15.2112 84.1741 14.9116 84.394 14.6401C84.6181 14.3642 84.8746 14.1272 85.1634 13.9289C85.4565 13.7263 85.7776 13.569 86.1267 13.4569C86.4802 13.3448 86.8616 13.2888 87.2711 13.2888C87.6763 13.2888 88.0427 13.3405 88.3703 13.444C88.7022 13.5431 88.9823 13.6961 89.2108 13.903C89.4435 14.1056 89.6224 14.3642 89.7474 14.6789C89.8724 14.9892 89.9349 15.3556 89.9349 15.778C89.9349 16.1487 89.894 16.5151 89.8121 16.8772C89.7345 17.2349 89.6203 17.5754 89.4694 17.8987C89.3185 18.222 89.131 18.5216 88.9069 18.7974C88.6828 19.0733 88.4263 19.3125 88.1375 19.5151C87.8487 19.7134 87.5276 19.8685 87.1741 19.9806C86.8207 20.0927 86.4392 20.1487 86.0297 20.1487ZM88.2797 15.9332C88.2797 15.5065 88.1741 15.1875 87.9629 14.9763C87.756 14.7608 87.4565 14.653 87.0642 14.653C86.8315 14.653 86.6203 14.6983 86.4306 14.7888C86.2409 14.875 86.0685 14.9914 85.9134 15.1379C85.7625 15.2845 85.631 15.4547 85.519 15.6487C85.4069 15.8427 85.3142 16.0453 85.2409 16.2565C85.1677 16.4677 85.1116 16.681 85.0728 16.8966C85.0384 17.1078 85.0211 17.3082 85.0211 17.4978C85.0211 17.9246 85.1267 18.2457 85.3379 18.4612C85.5491 18.6767 85.8509 18.7845 86.2431 18.7845C86.4759 18.7845 86.6871 18.7414 86.8767 18.6552C87.0664 18.5647 87.2366 18.4461 87.3875 18.2996C87.5384 18.1487 87.6698 17.9784 87.7819 17.7888C87.894 17.5948 87.9866 17.3922 88.0599 17.181C88.1332 16.9698 88.1871 16.7565 88.2216 16.5409C88.2603 16.3254 88.2797 16.1228 88.2797 15.9332ZM97.4828 17.6142C97.6595 17.6142 97.8211 17.6487 97.9677 17.7177C98.1185 17.7823 98.2478 17.8707 98.3556 17.9828C98.4634 18.0905 98.5474 18.2177 98.6078 18.3642C98.6681 18.5108 98.6983 18.6638 98.6983 18.8233C98.6983 19.0129 98.6616 19.1875 98.5884 19.347C98.5194 19.5065 98.4246 19.6466 98.3039 19.7672C98.1832 19.8879 98.0431 19.9806 97.8836 20.0453C97.7241 20.1142 97.5539 20.1487 97.3728 20.1487C97.2004 20.1487 97.0409 20.1142 96.8944 20.0453C96.7522 19.9806 96.6272 19.8944 96.5194 19.7866C96.4159 19.6746 96.334 19.5474 96.2737 19.4052C96.2134 19.2586 96.1832 19.1078 96.1832 18.9526C96.1832 18.7586 96.2177 18.5819 96.2866 18.4224C96.3599 18.2586 96.4547 18.1164 96.5711 17.9957C96.6918 17.875 96.8297 17.7823 96.9849 17.7177C97.1444 17.6487 97.3103 17.6142 97.4828 17.6142Z" fill="black"/>
</svg>
